<svg viewBox="0 0 316 316" xmlns="http://www.w3.org/2000/svg" style="background-color:#FFFFFF">
<defs>
  <linearGradient id="bgGradient">
    <stop class="stop1" offset="0%" stop-color="#0250c5"/>
    <stop class="stop2" offset="100%" stop-color="#d43f8d" />
  </linearGradient>
</defs>
<style>
  #gradient {
    fill: url(#bgGradient);
  }
</style>
<g id="gradient" transform="translate(-115.000000,400.000000) scale(0.100000,-0.100000)" stroke="none" fill="#000000">
<path d="M2542 3948 c-2 -36 -3 -37 -49 -43 -27 -4 -119 -17 -206 -31 -87 -13
-161 -23 -165 -22 -16 4 -149 -65 -197 -102 -103 -80 -206 -235 -341 -515 -41
-84 -79 -177 -86 -206 l-13 -54 -5 67 c-3 36 -8 70 -12 73 -12 12 -95 -5 -111
-23 -11 -13 -16 -44 -17 -122 -3 -160 -4 -159 28 -172 15 -7 28 -13 30 -14 2
-1 -15 -30 -38 -65 -44 -70 -70 -145 -125 -355 -19 -75 -40 -143 -46 -150 -8
-10 -7 -23 1 -50 10 -30 9 -49 -4 -108 -15 -61 -16 -89 -7 -188 6 -66 17 -130
25 -147 18 -35 82 -89 114 -97 23 -6 27 -16 37 -94 14 -107 92 -223 183 -267
70 -34 176 -39 229 -10 72 38 133 123 164 225 l13 44 200 -7 c111 -4 286 -13
389 -19 l188 -11 17 -50 c51 -151 142 -228 284 -241 95 -9 141 7 208 74 78 79
140 214 140 307 0 28 5 32 63 54 34 13 136 52 225 87 90 35 165 64 167 64 1 0
6 -24 9 -52 22 -167 37 -188 130 -188 103 0 131 39 143 196 5 60 9 75 24 79
16 5 19 17 19 66 0 44 4 61 15 66 9 3 22 17 29 32 19 36 39 177 30 209 -11 40
-6 356 6 360 13 5 13 206 -1 330 -11 110 -58 348 -90 466 -16 58 -30 86 -53
108 -34 32 -654 456 -706 483 -45 23 -155 32 -296 23 -152 -10 -459 -37 -501
-44 -31 -6 -32 -5 -36 33 l-4 38 -1 -37z m630 -55 c-5 -43 14 -36 20 7 3 24 5
25 68 22 36 -1 76 -5 90 -8 25 -6 25 -6 -7 -19 -41 -17 -59 -47 -79 -126 l-16
-65 -58 4 c-93 7 -754 -48 -1139 -94 -117 -14 -215 -23 -217 -21 -9 9 58 88
108 127 98 78 130 88 416 129 79 12 149 21 157 21 22 0 19 -78 -5 -124 -10
-22 -17 -43 -14 -47 10 -17 33 -9 53 18 19 23 20 28 6 43 -9 10 -15 36 -15 66
l0 50 203 18 c111 10 252 21 312 25 61 5 112 9 115 10 4 0 4 -16 2 -36z m366
-102 c70 -48 219 -150 332 -226 193 -129 219 -149 220 -167 0 -10 -145 82
-400 252 -261 174 -250 168 -249 133 0 -15 3 -23 6 -16 3 8 70 -31 181 -106
97 -64 238 -154 312 -199 74 -45 142 -88 151 -95 18 -14 71 -221 93 -367 23
-150 29 -236 21 -317 l-7 -75 -101 6 c-169 11 -207 17 -207 32 0 12 12 13 68
7 37 -4 103 -8 147 -8 l79 0 8 35 c15 72 -34 471 -62 505 -7 8 -73 46 -148 86
-76 39 -138 76 -140 80 -2 5 -10 9 -18 9 -28 0 -313 150 -318 167 -2 10 -8 37
-11 61 -4 24 -9 41 -12 39 -2 -3 0 -27 5 -54 l9 -49 -47 10 c-45 9 -103 3
-128 -12 -7 -5 -30 -96 -52 -203 -46 -226 -87 -390 -101 -404 -6 -5 -13 -5
-20 2 -8 8 -3 45 20 140 54 225 79 353 106 543 15 102 34 201 43 220 16 33 51
60 80 60 8 0 71 -40 140 -89z m-350 -167 c11 -20 8 -36 -63 -324 -66 -270 -85
-332 -103 -338 -10 -3 -12 9 -9 54 3 33 8 66 11 74 17 44 78 378 83 458 l6 92
33 0 c20 0 37 -6 42 -16z m295 -123 c10 -10 23 -102 32 -229 7 -91 7 -94 -12
-83 -18 9 -21 24 -26 123 -3 62 -10 125 -16 141 -10 25 -15 27 -66 27 -51 0
-56 -2 -65 -26 -7 -17 -8 -110 -4 -255 7 -209 6 -229 -9 -229 -14 0 -17 10
-17 56 0 30 -5 87 -11 125 -8 52 -8 94 1 157 21 158 30 192 53 203 24 10 127
3 140 -10z m-49 -67 c3 -9 6 -64 6 -124 l0 -108 -45 -4 -45 -3 0 51 c0 28 -3
85 -6 127 l-7 77 45 0 c33 0 48 -5 52 -16z m-1647 -247 c-8 -103 -17 -191 -21
-194 -3 -4 -30 -8 -60 -11 l-54 -4 5 48 c10 110 81 318 126 372 10 13 12 13
15 -4 1 -10 -4 -104 -11 -207z m156 197 c66 -20 62 -2 45 -197 l-11 -138 -58
-30 c-32 -16 -69 -29 -81 -29 l-23 0 19 210 c17 179 22 209 35 206 9 -3 42
-12 74 -22z m205 -65 c51 -17 96 -37 98 -44 3 -7 -7 -41 -21 -76 l-25 -64 -91
-33 c-50 -18 -93 -31 -96 -28 -5 4 13 212 23 254 2 12 8 22 12 22 4 0 49 -14
100 -31z m1431 -336 c36 -269 47 -297 117 -307 26 -3 64 -6 84 -6 74 0 100
-10 100 -39 l0 -26 98 -1 c53 0 123 -4 155 -8 47 -6 57 -11 57 -27 0 -13 -7
-19 -22 -20 l-23 -2 23 -4 c17 -4 22 -11 22 -38 l0 -33 -67 -7 c-38 -4 -95
-11 -128 -16 -95 -14 -95 -14 -95 31 0 22 1 41 3 41 1 1 56 5 122 9 l120 6
-122 2 c-106 2 -122 4 -126 20 -3 9 -5 -15 -6 -54 l-1 -72 -62 -11 c-35 -6
-103 -22 -153 -35 -49 -13 -92 -23 -93 -21 -2 2 -1 12 2 23 5 14 23 23 68 32
72 16 63 26 -10 12 -61 -11 -62 -10 -62 128 0 101 -14 333 -31 515 -6 61 -12
130 -14 155 -9 103 14 -30 44 -247z m-90 175 c4 -13 11 -89 15 -170 8 -162 10
-158 -59 -169 l-40 -6 40 -2 c52 -1 82 20 92 67 l7 37 7 -45 c5 -25 11 -136
15 -247 l7 -201 -44 -11 c-70 -18 -107 -38 -158 -86 -26 -25 -55 -45 -64 -45
-9 0 -23 15 -32 34 -20 42 -52 73 -86 81 -48 12 -118 -72 -147 -177 -15 -54 1
-47 37 17 47 84 105 106 159 60 42 -36 110 -195 83 -195 -6 0 -11 8 -11 18 0
28 -46 88 -78 101 -40 17 -84 -6 -114 -58 -20 -35 -28 -40 -80 -51 -32 -6 -63
-8 -69 -4 -6 3 -26 30 -44 59 l-34 52 -218 -5 -218 -5 -36 -39 -36 -39 -441 3
-441 3 -33 32 c-32 31 -36 32 -128 35 l-95 3 -3 39 -3 39 81 -6 c53 -3 87 -11
99 -21 16 -15 17 -12 4 57 -14 83 -16 127 -5 127 21 -1 30 -21 36 -81 8 -77
32 -121 78 -146 30 -16 66 -18 398 -18 407 0 412 1 475 65 46 47 39 52 -13 11
-63 -50 -98 -54 -442 -55 -362 -1 -409 6 -441 58 -32 52 -24 69 14 31 44 -44
98 -50 447 -49 387 2 422 12 479 139 21 47 35 64 54 69 14 3 33 9 44 13 17 6
17 5 -1 -15 -22 -25 -107 -195 -100 -201 2 -2 12 3 21 12 14 12 64 18 243 27
124 7 233 16 243 22 50 26 137 221 121 270 -8 26 -62 58 -97 58 l-28 0 38 70
c52 97 119 180 143 180 23 0 25 -15 6 -50 -12 -20 -12 -84 -1 -98 2 -2 31 11
64 28 63 31 64 31 74 -15 3 -12 5 -6 6 14 1 32 3 33 31 27 22 -4 36 0 50 14
10 10 36 22 57 26 56 10 66 21 59 66 -4 24 -2 38 4 38 6 0 8 5 5 10 -3 6 -32
10 -64 10 -57 0 -59 1 -65 31 -8 40 -8 143 0 163 5 12 21 16 65 16 53 0 60 -3
68 -22z m-222 -140 c-2 -18 -4 -6 -4 27 0 33 2 48 4 33 2 -15 2 -42 0 -60z
m-1827 -28 l0 -100 -30 0 -30 0 0 93 c0 52 3 97 7 100 3 4 17 7 30 7 23 0 23
-2 23 -100z m1518 93 c-21 -2 -57 -2 -80 0 -24 2 -7 4 37 4 44 0 63 -2 43 -4z
m900 -46 c2 -28 -1 -47 -7 -47 -6 0 -11 8 -11 19 0 10 -3 33 -7 51 -5 25 -3
32 8 28 9 -3 15 -22 17 -51z m-1083 24 c-33 -10 -89 -30 -125 -46 -61 -26 -83
-29 -340 -46 -151 -10 -291 -18 -310 -18 -30 0 -32 1 -13 9 12 5 91 14 175 20
84 6 180 17 213 25 33 8 117 19 187 25 75 7 147 19 175 30 26 11 59 19 73 19
14 0 -1 -8 -35 -18z m223 -8 c-10 -2 -26 -2 -35 0 -10 3 -2 5 17 5 19 0 27 -2
18 -5z m822 -58 c0 -8 -2 -15 -4 -15 -2 0 -6 7 -10 15 -3 8 -1 15 4 15 6 0 10
-7 10 -15z m-796 -65 c-5 -5 -115 -12 -244 -16 -188 -5 -241 -10 -265 -23 -28
-15 -17 -16 214 -19 l244 -2 -19 -23 -19 -22 25 21 c14 12 45 25 69 29 l44 7
-29 -37 c-16 -21 -47 -69 -69 -108 l-40 -70 -110 -37 c-125 -41 -244 -95 -294
-134 -19 -14 -36 -25 -37 -23 -2 2 3 21 11 42 15 45 11 58 -9 30 -12 -17 -27
-18 -242 -12 -256 7 -725 -6 -765 -22 -16 -6 -29 -20 -33 -36 -5 -18 -12 -25
-24 -23 -14 3 -16 12 -14 48 2 25 10 60 18 79 20 47 17 52 -7 14 -12 -18 -24
-33 -28 -33 -11 0 -51 57 -51 72 0 19 124 219 152 245 19 18 43 23 138 32 63
6 151 11 195 12 69 2 80 0 77 -15 -2 -10 4 -16 15 -16 52 0 598 33 658 39 109
12 451 13 439 1z m296 -5 c-33 -19 -50 -18 -26 0 11 8 27 15 35 15 10 -1 7 -6
-9 -15z m547 -57 c-2 -13 -4 -3 -4 22 0 25 2 35 4 23 2 -13 2 -33 0 -45z m10
-155 c-2 -16 -4 -5 -4 22 0 28 2 40 4 28 2 -13 2 -35 0 -50z m-854 -113 c5 -4
-18 -11 -50 -15 -61 -7 -183 -45 -243 -75 -19 -10 -55 -36 -80 -59 -25 -23
-48 -41 -53 -41 -16 0 25 76 56 106 71 66 326 124 370 84z m-1625 -76 c2 -1 0
-13 -4 -28 l-6 -25 -39 20 c-44 22 -42 19 -29 54 l10 26 33 -22 c17 -12 33
-23 35 -25z m1612 -11 c-19 -57 -49 -113 -75 -139 -39 -39 -47 -27 -16 24 16
26 42 75 57 110 17 40 31 59 37 53 6 -6 5 -23 -3 -48z m-74 -12 c-18 -35 -50
-50 -197 -97 -217 -68 -202 -65 -186 -40 16 24 99 59 237 101 52 15 106 36
120 46 36 26 43 23 26 -10z m-1557 -101 c17 -80 13 -102 -9 -46 -11 27 -33 63
-50 81 -43 44 -39 60 9 35 34 -17 41 -26 50 -70z m580 64 c15 -19 21 -40 20
-73 l-2 -46 -6 45 c-7 48 -26 90 -40 90 -11 0 -21 -36 -21 -76 0 -27 37 -80
51 -72 2 2 1 -1 -2 -6 -4 -4 -18 -1 -30 8 -31 21 -41 20 -73 -5 -23 -18 -25
-24 -14 -38 10 -13 9 -13 -8 2 -17 14 -41 17 -140 17 -67 0 -126 5 -134 11
-11 7 23 9 118 6 94 -3 132 -1 133 7 0 6 4 3 7 -7 7 -15 12 -13 41 17 38 39
61 123 39 138 -8 5 -3 8 14 8 17 0 34 -9 47 -26z m496 17 c-14 -12 -455 -24
-455 -11 0 5 47 11 108 13 248 7 356 7 347 -2z m-630 -11 c-4 -6 -70 -10 -168
-9 -97 1 -150 4 -132 9 47 12 307 12 300 0z m33 -17 c-15 -16 -33 -44 -41 -63
-10 -22 -16 -28 -16 -17 -1 14 -8 18 -33 17 -101 -6 -278 1 -278 10 0 7 55 10
159 10 l160 -2 32 36 c17 20 34 36 37 36 3 0 -6 -12 -20 -27z m557 -46 c-26
-16 -405 -24 -405 -8 0 10 69 14 325 19 82 1 96 -1 80 -11z m1755 5 c0 -4 -51
-14 -112 -21 -62 -7 -124 -15 -137 -18 -17 -4 -22 -2 -19 8 7 20 268 50 268
31z m-2868 -62 c3 -45 3 -45 -31 -48 -25 -3 -32 0 -28 10 44 112 53 118 59 38z
m2268 41 c0 -5 -3 -23 -7 -42 -4 -22 -8 -28 -12 -17 -5 14 -15 13 -81 -8 -41
-13 -79 -23 -84 -21 -15 5 52 48 113 73 62 26 71 28 71 15z m-818 -26 c-3 -20
0 -25 16 -25 27 0 37 17 22 35 -7 8 -9 15 -5 15 11 0 44 -44 38 -52 -2 -5 -24
-8 -49 -8 -36 0 -44 3 -44 18 0 14 17 42 26 42 1 0 -1 -11 -4 -25z m1138 15
c0 -5 -3 -10 -7 -10 -5 0 -64 -9 -133 -20 -134 -21 -178 -24 -166 -12 8 8 233
49 279 51 15 0 27 -3 27 -9z m220 -38 c13 -11 23 -33 27 -60 5 -37 3 -42 -14
-42 -12 0 -26 7 -33 15 -19 22 -25 19 -43 -22 -17 -44 -32 -113 -47 -231 -6
-46 -13 -89 -16 -96 -5 -12 -82 -42 -89 -34 -1 2 3 41 9 88 l11 85 43 9 42 9
0 81 c0 94 12 143 40 174 12 12 16 22 11 22 -18 0 -49 -50 -61 -100 -11 -45
-15 -50 -40 -50 -28 0 -28 2 -32 63 -2 34 -3 63 -2 65 1 1 26 5 55 9 30 3 63
12 74 19 26 18 38 18 65 -4z m70 -42 c0 -67 -15 -80 -26 -22 -4 20 -11 45 -15
54 -8 16 -1 22 34 27 4 0 7 -26 7 -59z m-1830 31 c0 -12 -90 -21 -229 -21
-159 0 -151 18 9 23 63 1 139 4 168 5 28 1 52 -2 52 -7z m299 -5 c-2 -2 -35
-7 -73 -11 -49 -5 -67 -4 -62 3 4 6 12 9 19 7 7 -3 35 -1 62 3 47 8 64 7 54
-2z m1255 -22 c3 -9 6 -39 6 -69 l0 -53 -142 -21 c-79 -12 -156 -24 -172 -26
l-28 -5 7 78 c4 42 8 78 9 79 2 3 249 29 292 32 12 0 25 -6 28 -15z m-2011
-31 c-7 -2 -19 -2 -25 0 -7 3 -2 5 12 5 14 0 19 -2 13 -5z m1617 -72 l0 -79
-67 -9 c-38 -4 -74 -8 -81 -8 -10 0 -62 121 -62 147 0 6 118 24 178 27 l32 1
0 -79z m40 4 c0 -60 -3 -75 -15 -75 -12 0 -15 15 -15 75 0 60 3 75 15 75 12 0
15 -15 15 -75z m-645 -61 l48 -56 74 6 74 7 -25 -39 c-13 -22 -59 -108 -101
-193 -131 -263 -111 -254 -590 -246 -428 8 -863 24 -967 37 -92 11 -151 39
-178 83 -24 39 -27 87 -5 87 10 0 15 11 15 35 0 31 4 36 45 54 69 30 61 43
-38 57 -26 3 -49 10 -52 14 -2 4 4 36 14 71 l18 64 64 3 65 3 34 -78 c22 -49
51 -95 80 -125 42 -44 51 -48 92 -48 l45 0 7 -42 c4 -24 14 -53 22 -65 14 -23
14 -23 -31 -23 -76 0 -50 -17 38 -24 45 -4 118 -14 161 -23 66 -13 93 -14 160
-4 45 6 125 11 179 11 88 0 98 2 95 18 -2 13 -15 18 -56 20 l-52 3 0 60 0 59
69 0 c38 0 80 4 93 9 20 8 118 119 118 135 0 3 -20 -8 -44 -25 -24 -17 -62
-35 -83 -38 -41 -8 -714 5 -770 14 -36 6 -95 66 -118 121 -19 46 -19 44 5 44
11 0 39 -20 63 -44 l42 -44 105 -7 c58 -4 247 -8 420 -9 309 -1 316 -1 346 21
17 12 43 41 59 63 l29 42 157 -4 c180 -3 189 -7 247 -94 41 -63 41 -39 -2 64
-19 45 -31 82 -27 82 4 0 29 -25 56 -56z m1245 17 c0 -17 -4 -33 -10 -36 -5
-3 -10 -5 -10 -3 0 2 -4 18 -9 36 -9 28 -7 32 10 32 14 0 19 -7 19 -29z m-242
-68 c-2 -13 -38 -25 -166 -53 -111 -25 -162 -32 -162 -24 0 6 -3 25 -6 41 l-6
29 154 23 c84 12 160 23 168 24 16 3 23 -13 18 -40z m42 17 c0 -20 -5 -30 -15
-30 -15 0 -21 40 -8 53 14 15 23 6 23 -23z m227 -60 c-3 -23 -11 -48 -19 -57
-12 -14 -14 -13 -19 13 -4 16 -7 41 -8 57 -1 23 3 27 25 27 25 0 26 -2 21 -40z
m-647 16 c0 -7 3 -27 6 -43 l6 -30 -87 -17 c-48 -10 -88 -16 -90 -14 -2 2 -5
23 -6 48 l-4 45 75 11 c103 16 100 16 100 0z m-200 -68 c0 -28 -2 -49 -4 -47
-8 9 -13 99 -5 99 5 0 9 -23 9 -52z m566 -29 c-12 -114 -7 -109 -165 -167 -78
-29 -144 -52 -146 -52 -3 0 -4 50 -3 112 l3 112 140 32 c195 44 179 48 171
-37z m-649 17 c27 -25 60 -65 74 -90 13 -25 27 -46 31 -46 4 0 8 17 10 37 l3
38 70 17 c39 9 82 17 98 17 26 1 27 0 27 -56 0 -32 3 -81 6 -109 l6 -52 -83
-27 c-46 -15 -89 -30 -94 -32 -6 -2 -17 24 -24 59 -15 73 -65 169 -113 215
-41 40 -103 66 -135 58 -16 -4 -22 -2 -18 5 3 5 26 10 50 10 37 0 50 -6 92
-44z m808 -214 c-4 -54 -3 -72 5 -67 8 5 11 1 8 -9 -5 -28 -23 -22 -29 10 -9
41 -10 224 -2 254 12 40 25 -101 18 -188z m-2037 118 l92 0 0 -70 0 -70 -127
1 c-71 1 -168 4 -218 8 -101 7 -106 11 -119 100 l-7 44 143 -6 c79 -4 185 -7
236 -7z m2059 -133 c-2 -23 -3 -1 -3 48 0 50 1 68 3 42 2 -26 2 -67 0 -90z
m-100 26 c-2 -16 -4 -5 -4 22 0 28 2 40 4 28 2 -13 2 -35 0 -50z m-787 42 c64
-33 101 -152 80 -259 -14 -73 -32 -110 -73 -153 -56 -60 -132 -51 -176 20 -31
50 -26 52 15 7 46 -51 95 -55 145 -13 99 84 108 298 14 371 -15 12 -36 22 -47
22 -15 0 -12 -7 19 -41 56 -60 67 -86 67 -159 0 -63 -23 -130 -44 -130 -5 0
-21 -11 -36 -25 -33 -30 -63 -32 -98 -4 -45 35 -60 76 -59 159 2 91 23 149 69
190 39 34 78 39 124 15z m797 -127 c-3 -7 -5 -2 -5 12 0 14 2 19 5 13 2 -7 2
-19 0 -25z m-2443 -249 c23 -49 53 -76 112 -100 43 -17 45 -19 14 -13 -83 14
-152 96 -164 194 l-6 45 14 -45 c7 -25 20 -61 30 -81z m1313 49 c-3 -8 -6 -5
-6 6 -1 11 2 17 5 13 3 -3 4 -12 1 -19z m52 -148 c11 -24 11 -24 -3 -6 -9 11
-16 24 -16 30 0 12 5 7 19 -24z m32 -47 c13 -16 12 -17 -3 -4 -17 13 -22 21
-14 21 2 0 10 -8 17 -17z"/>
<path d="M3460 3700 c0 -5 -22 -10 -50 -10 -58 0 -76 -18 -85 -90 l-5 -45 13
48 c8 27 20 54 26 60 15 15 99 16 109 2 4 -5 14 -11 22 -13 14 -3 277 -147
327 -179 21 -14 21 -14 10 10 -6 14 -14 22 -17 18 -3 -4 -43 14 -90 42 -47 27
-124 70 -171 96 -51 27 -84 51 -82 59 3 6 2 12 -1 12 -3 0 -6 -4 -6 -10z"/>
<path d="M3822 3410 c0 -19 2 -27 5 -17 2 9 2 25 0 35 -3 9 -5 1 -5 -18z"/>
<path d="M3728 2443 c7 -3 16 -2 19 1 4 3 -2 6 -13 5 -11 0 -14 -3 -6 -6z"/>
<path d="M3071 2755 c-23 -30 -40 -55 -37 -55 8 0 88 101 84 106 -3 2 -24 -20
-47 -51z"/>
<path d="M3471 2648 c-8 -21 -5 -24 28 -28 20 -3 39 -4 44 -2 14 6 7 31 -12
42 -31 16 -51 12 -60 -12z"/>
<path d="M3480 2581 c0 -37 35 -50 51 -18 9 17 8 23 -7 34 -29 21 -44 16 -44
-16z"/>
<path d="M1643 2890 c-49 -4 -93 -14 -108 -24 -31 -21 -33 -39 -2 -27 12 4 87
11 167 15 135 7 170 15 170 37 0 10 -105 10 -227 -1z"/>
<path d="M2776 2786 c-107 -68 -248 -169 -267 -193 -8 -9 13 2 46 26 33 24
114 79 180 123 66 44 124 85 130 89 22 21 -7 6 -89 -45z"/>
<path d="M1937 2673 c-12 -11 -8 -71 5 -79 13 -8 68 51 68 73 0 14 -61 19 -73
6z m43 -21 c0 -10 -22 -32 -32 -32 -4 0 -8 9 -8 20 0 13 7 20 20 20 11 0 20
-4 20 -8z"/>
<path d="M2685 1975 c-5 -2 -31 -6 -58 -10 -47 -6 -57 -25 -12 -25 15 0 26 -7
30 -21 9 -28 64 -89 81 -89 33 0 10 -19 -28 -24 -94 -12 -100 -14 -38 -12 107
5 150 39 135 106 -13 61 -59 92 -110 75z"/>
<path d="M3062 1777 c-26 -28 -56 -122 -46 -146 3 -9 6 -34 5 -56 -1 -41 26
-109 44 -111 6 0 18 -4 28 -9 32 -14 44 11 18 38 -31 33 -63 122 -55 153 5 18
1 29 -12 40 -18 14 -18 15 3 9 16 -4 25 0 33 17 7 13 23 33 37 44 14 12 22 27
19 33 -12 19 -51 12 -74 -12z"/>
<path d="M3135 1710 c-25 -28 -32 -115 -12 -163 33 -78 97 -30 97 72 0 91 -43
137 -85 91z"/>
</g></svg>